<svg xmlns="http://www.w3.org/2000/svg" xmlns:xlink="http://www.w3.org/1999/xlink" x="0" y="0" width="661.9921875" height="311.9921875" style="
        width:661.9921875px;
        height:311.9921875px;
        background: transparent;
        fill: none;
">
        <svg xmlns="http://www.w3.org/2000/svg"/>
        
        <svg xmlns="http://www.w3.org/2000/svg" class="role-diagram-draw-area"><g class="shapes-region" style="stroke: black; fill: none;"><g class="composite-shape" data-amt="diagram/shapes/plot" transform="matrix(1,0,0,1,-7.99346923828125,5.015625)"><g><g><g class="test-xgi"><line x1="50.5541879712746" y1="0" x2="50.5541879712746" y2="317" fill="none" stroke="#c3c3c3" stroke-width="0.5"/><line x1="103.97441012702761" y1="0" x2="103.97441012702761" y2="317" fill="none" stroke="#c3c3c3" stroke-width="0.5"/><line x1="157.39463228278066" y1="0" x2="157.39463228278066" y2="317" fill="none" stroke="#c3c3c3" stroke-width="0.5"/><line x1="210.81485443853367" y1="0" x2="210.81485443853367" y2="317" fill="none" stroke="#c3c3c3" stroke-width="0.5"/><line x1="264.23507659428674" y1="0" x2="264.23507659428674" y2="317" fill="none" stroke="#c3c3c3" stroke-width="0.5"/><line x1="317.6552987500397" y1="0" x2="317.6552987500397" y2="317" fill="none" stroke="#c3c3c3" stroke-width="0.5"/><line x1="371.0755209057927" y1="0" x2="371.0755209057927" y2="317" fill="none" stroke="#c3c3c3" stroke-width="0.5"/><line x1="424.49574306154574" y1="0" x2="424.49574306154574" y2="317" fill="none" stroke="#c3c3c3" stroke-width="0.5"/><line x1="477.91596521729883" y1="0" x2="477.91596521729883" y2="317" fill="none" stroke="#c3c3c3" stroke-width="0.5"/><line x1="531.3361873730519" y1="0" x2="531.3361873730519" y2="317" fill="none" stroke="#c3c3c3" stroke-width="0.5"/><line x1="584.7564095288049" y1="0" x2="584.7564095288049" y2="317" fill="none" stroke="#c3c3c3" stroke-width="0.5"/><line x1="638.1766316845578" y1="0" x2="638.1766316845578" y2="317" fill="none" stroke="#c3c3c3" stroke-width="0.5"/></g><g class="test-ygi"><line x1="0" y1="287.5100546556868" x2="674.4999847412109" y2="287.5100546556868" fill="none" stroke="#c3c3c3" stroke-width="0.5"/><line x1="0" y1="234.08983249993378" x2="674.4999847412109" y2="234.08983249993378" fill="none" stroke="#c3c3c3" stroke-width="0.5"/><line x1="0" y1="180.66961034418074" x2="674.4999847412109" y2="180.66961034418074" fill="none" stroke="#c3c3c3" stroke-width="0.5"/><line x1="0" y1="127.2493881884277" x2="674.4999847412109" y2="127.2493881884277" fill="none" stroke="#c3c3c3" stroke-width="0.5"/><line x1="0" y1="73.82916603267469" x2="674.4999847412109" y2="73.82916603267469" fill="none" stroke="#c3c3c3" stroke-width="0.5"/><line x1="0" y1="20.408943876921683" x2="674.4999847412109" y2="20.408943876921683" fill="none" stroke="#c3c3c3" stroke-width="0.5"/></g></g><g><g class="test-xti" style="font-family: Asana-Math, Asana;"><line x1="0" y1="180.66961034418074" x2="670.4999847412109" y2="180.66961034418074" fill="none" stroke="rgb(50,50,50)" stroke-opacity="1" stroke-width="1"/><line x1="50.5541879712746" y1="176.66961034418074" x2="50.5541879712746" y2="184.66961034418074" fill="none" stroke="rgb(50,50,50)" stroke-opacity="1" stroke-width="1"/><line x1="103.97441012702761" y1="176.66961034418074" x2="103.97441012702761" y2="184.66961034418074" fill="none" stroke="rgb(50,50,50)" stroke-opacity="1" stroke-width="1"/><line x1="157.39463228278066" y1="176.66961034418074" x2="157.39463228278066" y2="184.66961034418074" fill="none" stroke="rgb(50,50,50)" stroke-opacity="1" stroke-width="1"/><line x1="210.81485443853367" y1="176.66961034418074" x2="210.81485443853367" y2="184.66961034418074" fill="none" stroke="rgb(50,50,50)" stroke-opacity="1" stroke-width="1"/><line x1="264.23507659428674" y1="176.66961034418074" x2="264.23507659428674" y2="184.66961034418074" fill="none" stroke="rgb(50,50,50)" stroke-opacity="1" stroke-width="1"/><line x1="371.0755209057927" y1="176.66961034418074" x2="371.0755209057927" y2="184.66961034418074" fill="none" stroke="rgb(50,50,50)" stroke-opacity="1" stroke-width="1"/><line x1="424.49574306154574" y1="176.66961034418074" x2="424.49574306154574" y2="184.66961034418074" fill="none" stroke="rgb(50,50,50)" stroke-opacity="1" stroke-width="1"/><line x1="477.91596521729883" y1="176.66961034418074" x2="477.91596521729883" y2="184.66961034418074" fill="none" stroke="rgb(50,50,50)" stroke-opacity="1" stroke-width="1"/><line x1="531.3361873730519" y1="176.66961034418074" x2="531.3361873730519" y2="184.66961034418074" fill="none" stroke="rgb(50,50,50)" stroke-opacity="1" stroke-width="1"/><line x1="584.7564095288049" y1="176.66961034418074" x2="584.7564095288049" y2="184.66961034418074" fill="none" stroke="rgb(50,50,50)" stroke-opacity="1" stroke-width="1"/><line x1="638.1766316845578" y1="176.66961034418074" x2="638.1766316845578" y2="184.66961034418074" fill="none" stroke="rgb(50,50,50)" stroke-opacity="1" stroke-width="1"/><path d="M665.4999847412109,177.06961034418075 L673.4999847412109,180.66961034418074 L665.4999847412109,184.26961034418073 Z" stroke="none" stroke-width="1" fill="rgb(50,50,50)" fill-opacity="1"/></g><g class="test-yti" style="font-family: Asana-Math, Asana;"><line x1="317.6552987500397" y1="4" x2="317.6552987500397" y2="317" fill="none" stroke="rgb(50,50,50)" stroke-opacity="1" stroke-width="1"/><line x1="313.6552987500397" y1="287.5100546556868" x2="321.6552987500397" y2="287.5100546556868" fill="none" stroke="rgb(50,50,50)" stroke-opacity="1" stroke-width="1"/><line x1="313.6552987500397" y1="234.08983249993378" x2="321.6552987500397" y2="234.08983249993378" fill="none" stroke="rgb(50,50,50)" stroke-opacity="1" stroke-width="1"/><line x1="313.6552987500397" y1="127.2493881884277" x2="321.6552987500397" y2="127.2493881884277" fill="none" stroke="rgb(50,50,50)" stroke-opacity="1" stroke-width="1"/><line x1="313.6552987500397" y1="73.82916603267469" x2="321.6552987500397" y2="73.82916603267469" fill="none" stroke="rgb(50,50,50)" stroke-opacity="1" stroke-width="1"/><line x1="313.6552987500397" y1="20.408943876921683" x2="321.6552987500397" y2="20.408943876921683" fill="none" stroke="rgb(50,50,50)" stroke-opacity="1" stroke-width="1"/><path d="M314.0552987500397,9 L317.6552987500397,1 L321.25529875003974,9 Z" stroke="none" stroke-width="1" fill="rgb(50,50,50)" fill-opacity="1"/></g><g class="test-plot-expression"><defs><clipPath id="cpzg1r93wxu"><rect x="1" y="1" width="672.4999847412109" height="315"/></clipPath></defs><g clip-path="url(#cpzg1r93wxu)"><path d=" M0.00,-135.03 L0.61,-134.31 L1.23,-133.58 L1.84,-132.85 L2.45,-132.11 L3.07,-131.37 L3.68,-130.63 L4.30,-129.88 L4.91,-129.13 L5.52,-128.38 L6.14,-127.62 L6.75,-126.86 L7.36,-126.10 L7.98,-125.33 L8.59,-124.56 L9.21,-123.79 L9.82,-123.01 L10.43,-122.23 L11.05,-121.44 L11.66,-120.65 L12.27,-119.86 L12.89,-119.06 L13.50,-118.26 L14.12,-117.46 L14.73,-116.65 L15.34,-115.84 L15.96,-115.02 L16.57,-114.20 L17.18,-113.38 L17.80,-112.55 L18.41,-111.72 L19.03,-110.89 L19.64,-110.05 L20.25,-109.21 L20.87,-108.36 L21.48,-107.51 L22.09,-106.66 L22.71,-105.80 L23.32,-104.93 L23.94,-104.07 L24.55,-103.20 L25.16,-102.32 L25.78,-101.44 L26.39,-100.56 L27.00,-99.67 L27.62,-98.78 L28.23,-97.88 L28.85,-96.98 L29.46,-96.08 L30.07,-95.17 L30.69,-94.26 L31.30,-93.34 L31.91,-92.42 L32.53,-91.49 L33.14,-90.56 L33.76,-89.62 L34.37,-88.68 L34.98,-87.74 L35.60,-86.79 L36.21,-85.84 L36.82,-84.88 L37.44,-83.92 L38.05,-82.95 L38.67,-81.98 L39.28,-81.00 L39.89,-80.02 L40.51,-79.03 L41.12,-78.04 L41.73,-77.05 L42.35,-76.05 L42.96,-75.04 L43.58,-74.03 L44.19,-73.02 L44.80,-72.00 L45.42,-70.97 L46.03,-69.95 L46.64,-68.91 L47.26,-67.87 L47.87,-66.83 L48.49,-65.78 L49.10,-64.72 L49.71,-63.67 L50.33,-62.60 L50.94,-61.53 L51.55,-60.46 L52.17,-59.38 L52.78,-58.29 L53.40,-57.20 L54.01,-56.11 L54.62,-55.00 L55.24,-53.90 L55.85,-52.79 L56.46,-51.67 L57.08,-50.55 L57.69,-49.42 L58.31,-48.29 L58.92,-47.15 L59.53,-46.01 L60.15,-44.86 L60.76,-43.70 L61.37,-42.54 L61.99,-41.38 L62.60,-40.20 L63.22,-39.03 L63.83,-37.84 L64.44,-36.66 L65.06,-35.46 L65.67,-34.26 L66.28,-33.06 L66.90,-31.85 L67.51,-30.63 L68.13,-29.41 L68.74,-28.18 L69.35,-26.94 L69.97,-25.70 L70.58,-24.46 L71.19,-23.20 L71.81,-21.95 L72.42,-20.68 L73.04,-19.41 L73.65,-18.13 L74.26,-16.85 L74.88,-15.56 L75.49,-14.27 L76.10,-12.97 L76.72,-11.66 L77.33,-10.35 L77.94,-9.03 L78.56,-7.71 L79.17,-6.38 L79.79,-5.04 L80.40,-3.70 L81.01,-2.35 L81.63,-0.99 L82.24,0.37 L82.85,1.74 L83.47,3.12 L84.08,4.50 L84.70,5.89 L85.31,7.28 L85.92,8.68 L86.54,10.09 L87.15,11.50 L87.76,12.92 L88.38,14.35 L88.99,15.78 L89.61,17.22 L90.22,18.66 L90.83,20.12 L91.45,21.58 L92.06,23.04 L92.67,24.51 L93.29,25.99 L93.90,27.48 L94.52,28.97 L95.13,30.47 L95.74,31.97 L96.36,33.48 L96.97,35.00 L97.58,36.52 L98.20,38.05 L98.81,39.59 L99.43,41.14 L100.04,42.69 L100.65,44.24 L101.27,45.81 L101.88,47.38 L102.49,48.96 L103.11,50.54 L103.72,52.13 L104.34,53.73 L104.95,55.33 L105.56,56.94 L106.18,58.56 L106.79,60.18 L107.40,61.81 L108.02,63.45 L108.63,65.09 L109.25,66.74 L109.86,68.40 L110.47,70.06 L111.09,71.73 L111.70,73.41 L112.31,75.09 L112.93,76.78 L113.54,78.47 L114.16,80.17 L114.77,81.88 L115.38,83.59 L116.00,85.31 L116.61,87.04 L117.22,88.77 L117.84,90.51 L118.45,92.25 L119.07,94.00 L119.68,95.76 L120.29,97.52 L120.91,99.29 L121.52,101.06 L122.13,102.84 L122.75,104.63 L123.36,106.42 L123.98,108.21 L124.59,110.02 L125.20,111.82 L125.82,113.64 L126.43,115.46 L127.04,117.28 L127.66,119.11 L128.27,120.94 L128.89,122.78 L129.50,124.63 L130.11,126.47 L130.73,128.33 L131.34,130.19 L131.95,132.05 L132.57,133.91 L133.18,135.79 L133.80,137.66 L134.41,139.54 L135.02,141.42 L135.64,143.31 L136.25,145.20 L136.86,147.10 L137.48,148.99 L138.09,150.89 L138.71,152.80 L139.32,154.70 L139.93,156.61 L140.55,158.53 L141.16,160.44 L141.77,162.36 L142.39,164.28 L143.00,166.20 L143.62,168.12 L144.23,170.04 L144.84,171.97 L145.46,173.89 L146.07,175.82 L146.68,177.75 L147.30,179.68 L147.91,181.61 L148.53,183.53 L149.14,185.46 L149.75,187.39 L150.37,189.31 L150.98,191.24 L151.59,193.16 L152.21,195.08 L152.82,197.00 L153.43,198.92 L154.05,200.84 L154.66,202.75 L155.28,204.65 L155.89,206.56 L156.50,208.46 L157.12,210.36 L157.73,212.25 L158.34,214.13 L158.96,216.01 L159.57,217.89 L160.19,219.75 L160.80,221.62 L161.41,223.47 L162.03,225.32 L162.64,227.15 L163.25,228.98 L163.87,230.80 L164.48,232.61 L165.10,234.41 L165.71,236.20 L166.32,237.98 L166.94,239.75 L167.55,241.50 L168.16,243.24 L168.78,244.97 L169.39,246.69 L170.01,248.39 L170.62,250.07 L171.23,251.74 L171.85,253.39 L172.46,255.02 L173.07,256.64 L173.69,258.24 L174.30,259.82 L174.92,261.37 L175.53,262.91 L176.14,264.43 L176.76,265.92 L177.37,267.39 L177.98,268.83 L178.60,270.25 L179.21,271.65 L179.83,273.02 L180.44,274.36 L181.05,275.67 L181.67,276.95 L182.28,278.21 L182.89,279.43 L183.51,280.62 L184.12,281.77 L184.74,282.89 L185.35,283.98 L185.96,285.03 L186.58,286.05 L187.19,287.02 L187.80,287.96 L188.42,288.85 L189.03,289.70 L189.65,290.51 L190.26,291.28 L190.87,292.00 L191.49,292.68 L192.10,293.30 L192.71,293.88 L193.33,294.41 L193.94,294.89 L194.56,295.31 L195.17,295.69 L195.78,296.00 L196.40,296.26 L197.01,296.46 L197.62,296.61 L198.24,296.69 L198.85,296.72 L199.47,296.68 L200.08,296.57 L200.69,296.40 L201.31,296.17 L201.92,295.86 L202.53,295.49 L203.15,295.05 L203.76,294.54 L204.38,293.95 L204.99,293.29 L205.60,292.55 L206.22,291.74 L206.83,290.85 L207.44,289.88 L208.06,288.84 L208.67,287.71 L209.29,286.50 L209.90,285.21 L210.51,283.83 L211.13,282.37 L211.74,280.83 L212.35,279.20 L212.97,277.48 L213.58,275.68 L214.20,273.79 L214.81,271.81 L215.42,269.74 L216.04,267.59 L216.65,265.35 L217.26,263.02 L217.88,260.61 L218.49,258.11 L219.11,255.52 L219.72,252.85 L220.33,250.09 L220.95,247.25 L221.56,244.33 L222.17,241.33 L222.79,238.25 L223.40,235.09 L224.02,231.86 L224.63,228.55 L225.24,225.18 L225.86,221.75 L226.47,218.25 L227.08,214.69 L227.70,211.08 L228.31,207.42 L228.92,203.71 L229.54,199.96 L230.15,196.18 L230.77,192.37 L231.38,188.54 L231.99,184.69 L232.61,180.84 L233.22,176.98 L233.83,173.14 L234.45,169.31 L235.06,165.50 L235.68,161.73 L236.29,158.01 L236.90,154.34 L237.52,150.73 L238.13,147.21 L238.74,143.77 L239.36,140.44 L239.97,137.22 L240.59,134.13 L241.20,131.19 L241.81,128.40 L242.43,125.77 L243.04,123.34 L243.65,121.10 L244.27,119.07 L244.88,117.28 L245.50,115.72 L246.11,114.43 L246.72,113.40 L247.34,112.66 L247.95,112.22 L248.56,112.09 L249.18,112.29 L249.79,112.82 L250.41,113.69 L251.02,114.91 L251.63,116.50 L252.25,118.44 L252.86,120.75 L253.47,123.43 L254.09,126.47 L254.70,129.87 L255.32,133.61 L255.93,137.68 L256.54,142.08 L257.16,146.77 L257.77,151.74 L258.38,156.94 L259.00,162.35 L259.61,167.93 L260.23,173.63 L260.84,179.39 L261.45,185.17 L262.07,190.90 L262.68,196.52 L263.29,201.95 L263.91,207.11 L264.52,211.94 L265.14,216.34 L265.75,220.24 L266.36,223.55 L266.98,226.20 L267.59,228.11 L268.20,229.20 L268.82,229.43 L269.43,228.73 L270.05,227.08 L270.66,224.46 L271.27,220.88 L271.89,216.37 L272.50,210.98 L273.11,204.81 L273.73,197.99 L274.34,190.67 L274.96,183.05 L275.57,175.35 L276.18,167.84 L276.80,160.79 L277.41,154.52 L278.02,149.31 L278.64,145.47 L279.25,143.25 L279.87,142.88 L280.48,142.88 M280.48,142.88 L280.48,144.49 L281.09,148.13 L281.71,153.71 L282.32,161.02 L282.93,169.66 L283.55,179.11 L284.16,188.67 L284.78,197.55 L285.39,204.87 L286.00,209.80 L286.62,211.64 L287.23,211.64 M287.23,211.64 L287.23,209.92 L287.84,204.57 L288.46,196.02 L289.07,185.24 L289.69,173.76 L290.30,163.51 L290.91,156.53 L291.53,154.55 L292.14,154.55 M292.14,154.55 L292.14,158.48 L292.75,167.90 L293.37,180.76 L293.98,193.52 L294.60,201.94 L295.21,202.49 L295.82,202.49 M295.82,202.48 L295.82,194.14 L296.44,179.76 L297.05,165.99 L297.66,160.68 L298.28,160.68 M298.28,160.68 L298.28,168.09 L298.89,184.31 L299.50,197.29 L300.12,198.58 M300.12,198.58 L300.12,194.97 L300.73,178.12 L301.35,164.80 L301.96,164.47 M301.96,164.47 L301.96,172.85 L302.57,192.13 L303.19,195.46 M303.19,195.46 L303.19,190.80 L303.80,170.17 L304.41,167.12 M304.41,167.12 L304.41,174.39 L305.03,193.23 L305.64,193.27 M305.64,193.27 L305.64,175.05 L306.26,168.94 M306.26,168.94 L306.26,177.73 L306.87,187.91 L307.48,187.91 M307.48,187.87 L307.48,172.78 L308.10,172.78 M308.10,172.80 L308.10,186.51 L308.71,186.51 M308.71,186.47 L308.71,180.99 L309.32,172.66 L309.94,172.37 M309.94,172.37 L309.94,179.81 L310.55,182.01 L311.17,182.01 M311.17,181.95 L311.17,176.80 L311.78,174.25 M311.78,174.25 L311.78,179.58 L312.39,185.95 M312.39,185.91 L312.39,176.26 L313.01,176.18 L313.62,176.18 M313.62,176.21 L313.62,178.85 L314.23,183.36 L314.85,183.36 M314.85,183.28 L314.85,177.96 L315.46,177.96 M315.46,178.00 L315.46,182.85 L316.08,182.04 L316.69,180.37 L317.30,180.94 L317.92,180.87 L318.53,180.17 L319.14,179.91 L319.76,179.73 L320.37,178.06 L320.99,178.04 M320.99,178.09 L320.99,181.24 L321.60,182.01 L322.21,184.40 L322.83,184.40 M322.83,184.35 L322.83,178.74 L323.44,175.49 M323.44,175.51 L323.44,186.12 L324.05,186.12 M324.05,186.09 L324.05,174.43 L324.67,174.25 M324.67,174.25 L324.67,175.76 L325.28,187.90 M325.28,187.90 L325.28,174.56 L325.90,173.16 L326.51,172.41 M326.51,172.41 L326.51,185.98 L327.12,185.98 M327.12,185.94 L327.12,181.87 L327.74,176.56 L328.35,170.36 M328.35,170.36 L328.35,184.02 L328.96,191.64 M328.96,191.64 L328.96,181.94 L329.58,171.93 L330.19,171.93 M330.19,171.96 L330.19,192.96 L330.81,193.27 M330.81,193.27 L330.81,177.82 L331.42,168.33 L332.03,168.33 M332.03,168.34 L332.03,188.12 L332.65,193.86 L333.26,193.86 M333.26,193.85 L333.26,175.68 L333.87,164.47 L334.49,164.47 M334.49,164.47 L334.49,175.38 L335.10,193.14 L335.72,198.09 L336.33,198.09 M336.33,198.09 L336.33,186.76 L336.94,170.13 L337.56,160.96 L338.17,160.65 M338.17,160.65 L338.17,164.52 L338.78,177.51 L339.40,192.28 L340.01,201.80 L340.63,202.57 L341.24,202.57 M341.24,202.57 L341.24,195.13 L341.85,182.73 L342.47,169.64 L343.08,159.55 L343.69,154.75 L344.31,154.48 M344.31,154.48 L344.31,155.89 L344.92,162.24 L345.54,172.14 L346.15,183.56 L346.76,194.55 L347.38,203.50 L347.99,209.36 L348.60,211.61 L349.22,211.64 M349.22,211.64 L349.22,210.28 L349.83,205.76 L350.45,198.74 L351.06,190.04 L351.67,180.52 L352.29,171.01 L352.90,162.21 L353.51,154.68 L354.13,148.83 L354.74,144.90 L355.36,142.99 L355.97,143.08 L356.58,145.03 L357.20,148.65 L357.81,153.68 L358.42,159.82 L359.04,166.77 L359.65,174.23 L360.27,181.92 L360.88,189.57 L361.49,196.95 L362.11,203.85 L362.72,210.12 L363.33,215.63 L363.95,220.28 L364.56,224.00 L365.18,226.76 L365.79,228.55 L366.40,229.38 L367.02,229.29 L367.63,228.32 L368.24,226.53 L368.86,223.99 L369.47,220.76 L370.09,216.95 L370.70,212.61 L371.31,207.84 L371.93,202.72 L372.54,197.33 L373.15,191.74 L373.77,186.02 L374.38,180.24 L374.99,174.47 L375.61,168.76 L376.22,163.16 L376.84,157.72 L377.45,152.48 L378.06,147.48 L378.68,142.75 L379.29,138.31 L379.90,134.18 L380.52,130.39 L381.13,126.95 L381.75,123.85 L382.36,121.12 L382.97,118.76 L383.59,116.76 L384.20,115.12 L384.81,113.85 L385.43,112.92 L386.04,112.34 L386.66,112.10 L387.27,112.18 L387.88,112.58 L388.50,113.27 L389.11,114.26 L389.72,115.52 L390.34,117.03 L390.95,118.79 L391.57,120.79 L392.18,123.00 L392.79,125.40 L393.41,128.00 L394.02,130.77 L394.63,133.69 L395.25,136.76 L395.86,139.96 L396.48,143.28 L397.09,146.70 L397.70,150.21 L398.32,153.80 L398.93,157.46 L399.54,161.18 L400.16,164.95 L400.77,168.75 L401.39,172.57 L402.00,176.42 L402.61,180.27 L403.23,184.13 L403.84,187.98 L404.45,191.81 L405.07,195.63 L405.68,199.41 L406.30,203.16 L406.91,206.88 L407.52,210.54 L408.14,214.16 L408.75,217.73 L409.36,221.24 L409.98,224.68 L410.59,228.07 L411.21,231.38 L411.82,234.62 L412.43,237.79 L413.05,240.88 L413.66,243.89 L414.27,246.83 L414.89,249.68 L415.50,252.45 L416.12,255.13 L416.73,257.73 L417.34,260.25 L417.96,262.68 L418.57,265.02 L419.18,267.27 L419.80,269.43 L420.41,271.51 L421.03,273.50 L421.64,275.40 L422.25,277.22 L422.87,278.95 L423.48,280.59 L424.09,282.15 L424.71,283.62 L425.32,285.01 L425.94,286.31 L426.55,287.53 L427.16,288.67 L427.78,289.73 L428.39,290.71 L429.00,291.61 L429.62,292.44 L430.23,293.19 L430.85,293.86 L431.46,294.45 L432.07,294.98 L432.69,295.43 L433.30,295.81 L433.91,296.13 L434.53,296.37 L435.14,296.55 L435.76,296.66 L436.37,296.71 L436.98,296.70 L437.60,296.63 L438.21,296.49 L438.82,296.30 L439.44,296.04 L440.05,295.74 L440.67,295.37 L441.28,294.95 L441.89,294.48 L442.51,293.96 L443.12,293.39 L443.73,292.77 L444.35,292.10 L444.96,291.39 L445.58,290.63 L446.19,289.83 L446.80,288.98 L447.42,288.09 L448.03,287.16 L448.64,286.19 L449.26,285.18 L449.87,284.14 L450.48,283.06 L451.10,281.94 L451.71,280.79 L452.33,279.60 L452.94,278.39 L453.55,277.14 L454.17,275.86 L454.78,274.55 L455.39,273.22 L456.01,271.85 L456.62,270.46 L457.24,269.04 L457.85,267.60 L458.46,266.14 L459.08,264.65 L459.69,263.13 L460.30,261.60 L460.92,260.04 L461.53,258.47 L462.15,256.88 L462.76,255.26 L463.37,253.63 L463.99,251.98 L464.60,250.32 L465.21,248.63 L465.83,246.94 L466.44,245.22 L467.06,243.50 L467.67,241.76 L468.28,240.01 L468.90,238.24 L469.51,236.46 L470.12,234.68 L470.74,232.88 L471.35,231.07 L471.97,229.25 L472.58,227.42 L473.19,225.59 L473.81,223.74 L474.42,221.89 L475.03,220.03 L475.65,218.16 L476.26,216.29 L476.88,214.41 L477.49,212.52 L478.10,210.63 L478.72,208.74 L479.33,206.84 L479.94,204.93 L480.56,203.03 L481.17,201.12 L481.79,199.20 L482.40,197.28 L483.01,195.37 L483.63,193.44 L484.24,191.52 L484.85,189.60 L485.47,187.67 L486.08,185.74 L486.70,183.82 L487.31,181.89 L487.92,179.96 L488.54,178.03 L489.15,176.10 L489.76,174.18 L490.38,172.25 L490.99,170.33 L491.61,168.40 L492.22,166.48 L492.83,164.56 L493.45,162.64 L494.06,160.72 L494.67,158.81 L495.29,156.89 L495.90,154.98 L496.52,153.08 L497.13,151.17 L497.74,149.27 L498.36,147.37 L498.97,145.48 L499.58,143.59 L500.20,141.70 L500.81,139.82 L501.43,137.94 L502.04,136.06 L502.65,134.19 L503.27,132.32 L503.88,130.46 L504.49,128.60 L505.11,126.75 L505.72,124.90 L506.34,123.05 L506.95,121.21 L507.56,119.38 L508.18,117.55 L508.79,115.72 L509.40,113.90 L510.02,112.09 L510.63,110.28 L511.25,108.48 L511.86,106.68 L512.47,104.89 L513.09,103.10 L513.70,101.32 L514.31,99.55 L514.93,97.78 L515.54,96.02 L516.16,94.26 L516.77,92.51 L517.38,90.76 L518.00,89.02 L518.61,87.29 L519.22,85.56 L519.84,83.84 L520.45,82.13 L521.07,80.42 L521.68,78.72 L522.29,77.02 L522.91,75.33 L523.52,73.65 L524.13,71.97 L524.75,70.30 L525.36,68.64 L525.97,66.98 L526.59,65.33 L527.20,63.69 L527.82,62.05 L528.43,60.42 L529.04,58.80 L529.66,57.18 L530.27,55.57 L530.88,53.96 L531.50,52.37 L532.11,50.77 L532.73,49.19 L533.34,47.61 L533.95,46.04 L534.57,44.47 L535.18,42.92 L535.79,41.36 L536.41,39.82 L537.02,38.28 L537.64,36.75 L538.25,35.22 L538.86,33.70 L539.48,32.19 L540.09,30.69 L540.70,29.19 L541.32,27.69 L541.93,26.21 L542.55,24.73 L543.16,23.26 L543.77,21.79 L544.39,20.33 L545.00,18.88 L545.61,17.43 L546.23,15.99 L546.84,14.56 L547.46,13.13 L548.07,11.71 L548.68,10.29 L549.30,8.89 L549.91,7.49 L550.52,6.09 L551.14,4.70 L551.75,3.32 L552.37,1.94 L552.98,0.57 L553.59,-0.79 L554.21,-2.15 L554.82,-3.50 L555.43,-4.84 L556.05,-6.18 L556.66,-7.51 L557.28,-8.84 L557.89,-10.16 L558.50,-11.47 L559.12,-12.78 L559.73,-14.08 L560.34,-15.38 L560.96,-16.66 L561.57,-17.95 L562.19,-19.22 L562.80,-20.50 L563.41,-21.76 L564.03,-23.02 L564.64,-24.27 L565.25,-25.52 L565.87,-26.76 L566.48,-28.00 L567.10,-29.23 L567.71,-30.45 L568.32,-31.67 L568.94,-32.88 L569.55,-34.09 L570.16,-35.29 L570.78,-36.48 L571.39,-37.67 L572.01,-38.85 L572.62,-40.03 L573.23,-41.20 L573.85,-42.37 L574.46,-43.53 L575.07,-44.69 L575.69,-45.84 L576.30,-46.98 L576.92,-48.12 L577.53,-49.26 L578.14,-50.38 L578.76,-51.51 L579.37,-52.62 L579.98,-53.74 L580.60,-54.84 L581.21,-55.94 L581.83,-57.04 L582.44,-58.13 L583.05,-59.22 L583.67,-60.30 L584.28,-61.37 L584.89,-62.44 L585.51,-63.51 L586.12,-64.57 L586.74,-65.62 L587.35,-66.67 L587.96,-67.72 L588.58,-68.76 L589.19,-69.79 L589.80,-70.82 L590.42,-71.85 L591.03,-72.87 L591.65,-73.88 L592.26,-74.90 L592.87,-75.90 L593.49,-76.90 L594.10,-77.90 L594.71,-78.89 L595.33,-79.88 L595.94,-80.86 L596.56,-81.83 L597.17,-82.81 L597.78,-83.77 L598.40,-84.74 L599.01,-85.70 L599.62,-86.65 L600.24,-87.60 L600.85,-88.54 L601.46,-89.49 L602.08,-90.42 L602.69,-91.35 L603.31,-92.28 L603.92,-93.20 L604.53,-94.12 L605.15,-95.03 L605.76,-95.94 L606.37,-96.85 L606.99,-97.75 L607.60,-98.65 L608.22,-99.54 L608.83,-100.43 L609.44,-101.31 L610.06,-102.19 L610.67,-103.07 L611.28,-103.94 L611.90,-104.81 L612.51,-105.67 L613.13,-106.53 L613.74,-107.38 L614.35,-108.24 L614.97,-109.08 L615.58,-109.93 L616.19,-110.77 L616.81,-111.60 L617.42,-112.43 L618.04,-113.26 L618.65,-114.08 L619.26,-114.90 L619.88,-115.72 L620.49,-116.53 L621.10,-117.34 L621.72,-118.14 L622.33,-118.94 L622.95,-119.74 L623.56,-120.54 L624.17,-121.32 L624.79,-122.11 L625.40,-122.89 L626.01,-123.67 L626.63,-124.45 L627.24,-125.22 L627.86,-125.99 L628.47,-126.75 L629.08,-127.51 L629.70,-128.27 L630.31,-129.02 L630.92,-129.77 L631.54,-130.52 L632.15,-131.26 L632.77,-132.00 L633.38,-132.74 L633.99,-133.47 L634.61,-134.20 L635.22,-134.93 L635.83,-135.65 L636.45,-136.37 L637.06,-137.09 L637.68,-137.80 L638.29,-138.51 L638.90,-139.22 L639.52,-139.92 L640.13,-140.62 L640.74,-141.32 L641.36,-142.01 L641.97,-142.70 L642.59,-143.39 L643.20,-144.07 L643.81,-144.75 L644.43,-145.43 L645.04,-146.11 L645.65,-146.78 L646.27,-147.45 L646.88,-148.12 L647.50,-148.78 L648.11,-149.44 L648.72,-150.10 L649.34,-150.75 L649.95,-151.40 L650.56,-152.05 L651.18,-152.69 L651.79,-153.34 L652.41,-153.98 L653.02,-154.61 L653.63,-155.25 L654.25,-155.88 L654.86,-156.51 L655.47,-157.13 L656.09,-157.75 L656.70,-158.37 L657.32,-158.99 L657.93,-159.60 L658.54,-160.22 L659.16,-160.82 L659.77,-161.43 L660.38,-162.03 L661.00,-162.63 L661.61,-163.23 L662.23,-163.83 L662.84,-164.42 L663.45,-165.01 L664.07,-165.60 L664.68,-166.18 L665.29,-166.77 L665.91,-167.35 L666.52,-167.92 L667.14,-168.50 L667.75,-169.07 L668.36,-169.64 L668.98,-170.21 L669.59,-170.77 L670.20,-171.34 L670.82,-171.90 L671.43,-172.45 L672.05,-173.01 L672.66,-173.56 L673.27,-174.11 L673.89,-174.66 L674.50,-175.20" style="stroke-width: 2; stroke: rgb(74, 144, 226); stroke-opacity: 0.8;"/></g></g><g class="test-xtl" style="font-family: &quot;Open Sans&quot;, verdana, arial, sans-serif;"><text text-anchor="middle" font-size="11" dominant-baseline="hanging" stroke="none" fill="rgb(50,50,50)" fill-opacity="1" x="47.4191879712746" y="187.66961034418074">-0.5</text><text text-anchor="middle" font-size="11" dominant-baseline="hanging" stroke="none" fill="rgb(50,50,50)" fill-opacity="1" x="100.8394101270276" y="187.66961034418074">-0.4</text><text text-anchor="middle" font-size="11" dominant-baseline="hanging" stroke="none" fill="rgb(50,50,50)" fill-opacity="1" x="154.25963228278067" y="187.66961034418074">-0.3</text><text text-anchor="middle" font-size="11" dominant-baseline="hanging" stroke="none" fill="rgb(50,50,50)" fill-opacity="1" x="207.67985443853368" y="187.66961034418074">-0.2</text><text text-anchor="middle" font-size="11" dominant-baseline="hanging" stroke="none" fill="rgb(50,50,50)" fill-opacity="1" x="261.10007659428675" y="187.66961034418074">-0.1</text><text text-anchor="middle" font-size="11" dominant-baseline="hanging" stroke="none" fill="rgb(50,50,50)" fill-opacity="1" x="371.0755209057927" y="187.66961034418074">0.1</text><text text-anchor="middle" font-size="11" dominant-baseline="hanging" stroke="none" fill="rgb(50,50,50)" fill-opacity="1" x="424.49574306154574" y="187.66961034418074">0.2</text><text text-anchor="middle" font-size="11" dominant-baseline="hanging" stroke="none" fill="rgb(50,50,50)" fill-opacity="1" x="477.91596521729883" y="187.66961034418074">0.3</text><text text-anchor="middle" font-size="11" dominant-baseline="hanging" stroke="none" fill="rgb(50,50,50)" fill-opacity="1" x="531.3361873730519" y="187.66961034418074">0.4</text><text text-anchor="middle" font-size="11" dominant-baseline="hanging" stroke="none" fill="rgb(50,50,50)" fill-opacity="1" x="584.7564095288049" y="187.66961034418074">0.5</text><text text-anchor="middle" font-size="11" dominant-baseline="hanging" stroke="none" fill="rgb(50,50,50)" fill-opacity="1" x="638.1766316845578" y="187.66961034418074">0.6</text><text text-anchor="middle" font-size="11" dominant-baseline="hanging" stroke="none" fill="rgb(50,50,50)" fill-opacity="1" x="309.6552987500397" y="185.66961034418074">0</text></g><g class="test-ytl" style="font-family: &quot;Open Sans&quot;, verdana, arial, sans-serif;"><text text-anchor="end" dominant-baseline="middle" font-size="11" stroke="none" fill="rgb(50,50,50)" fill-opacity="1" x="309.6552987500397" y="287.5100546556868">-0.2</text><text text-anchor="end" dominant-baseline="middle" font-size="11" stroke="none" fill="rgb(50,50,50)" fill-opacity="1" x="309.6552987500397" y="234.08983249993378">-0.1</text><text text-anchor="end" dominant-baseline="middle" font-size="11" stroke="none" fill="rgb(50,50,50)" fill-opacity="1" x="309.6552987500397" y="127.2493881884277">0.1</text><text text-anchor="end" dominant-baseline="middle" font-size="11" stroke="none" fill="rgb(50,50,50)" fill-opacity="1" x="309.6552987500397" y="73.82916603267469">0.2</text><text text-anchor="end" dominant-baseline="middle" font-size="11" stroke="none" fill="rgb(50,50,50)" fill-opacity="1" x="309.6552987500397" y="20.408943876921683">0.3</text></g><rect class="real" x="1" y="1" width="672.4999847412109" height="315" style="fill: transparent; stroke: none;"/></g></g></g><g/></g><g/><g/><g/></svg>
        <svg xmlns="http://www.w3.org/2000/svg" xmlns:xlink="http://www.w3.org/1999/xlink" width="660" height="310" style="width:660px;height:310px;font-family:Asana-Math, Asana;background:transparent;"></svg>
</svg>
